<svg width="195" height="55" viewBox="0 0 195 55" fill="none" xmlns="http://www.w3.org/2000/svg">
<rect width="195" height="55" rx="27.5" fill="#1D0505"/>
<path fill-rule="evenodd" clip-rule="evenodd" d="M45.7603 15.4713C48.4444 18.1712 48.8505 22.8883 46.6673 26.0072L31.2802 47.9895C29.097 51.1084 25.1513 51.4481 22.4671 48.7482V48.7482C19.783 46.0483 19.3769 41.3312 21.5601 38.2123L36.9472 16.23C39.1304 13.1111 43.0762 12.7714 45.7603 15.4713V15.4713Z" fill="white"/>
<path fill-rule="evenodd" clip-rule="evenodd" d="M29.8598 49.6142C26.9027 52.5887 22.5556 52.2144 20.1504 48.7783L4.35502 26.2128C1.94981 22.7766 2.39721 17.5798 5.35432 14.6054V14.6054C8.31144 11.6309 12.6585 12.0051 15.0637 15.4413L30.8591 38.0068C33.2643 41.4429 32.8169 46.6397 29.8598 49.6142V49.6142Z" fill="white"/>
<path d="M65.6804 45.69C65.6804 45.07 65.4304 44.49 64.9304 43.95C64.4304 43.41 63.8004 42.92 63.0404 42.48C62.3004 42.02 61.2904 41.46 60.0104 40.8C58.4904 40 57.2704 39.32 56.3504 38.76C55.4304 38.18 54.6404 37.5 53.9804 36.72C53.3404 35.94 53.0204 35.08 53.0204 34.14C53.0204 33.14 53.4404 32.07 54.2804 30.93C55.1204 29.77 56.1404 28.8 57.3404 28.02C58.5604 27.22 59.6804 26.82 60.7004 26.82C61.9404 26.82 63.3804 26.97 65.0204 27.27C66.6604 27.57 67.8604 27.89 68.6204 28.23V34.05H67.4804C66.5004 32.43 65.4204 31.17 64.2404 30.27C63.0804 29.37 61.8604 28.92 60.5804 28.92C59.4404 28.92 58.5304 29.28 57.8504 30C57.1904 30.7 56.8604 31.62 56.8604 32.76C56.8604 33.42 57.1104 34.04 57.6104 34.62C58.1304 35.18 58.7604 35.68 59.5004 36.12C60.2604 36.56 61.3104 37.13 62.6504 37.83C64.1304 38.57 65.3304 39.23 66.2504 39.81C67.1704 40.37 67.9404 41.03 68.5604 41.79C69.2004 42.53 69.5204 43.37 69.5204 44.31C69.5204 45.31 69.0704 46.39 68.1704 47.55C67.2704 48.69 66.1704 49.66 64.8704 50.46C63.5904 51.24 62.4204 51.63 61.3604 51.63C60.0604 51.63 58.5104 51.48 56.7104 51.18C54.9304 50.88 53.6504 50.56 52.8704 50.22V44.4H54.0104C55.0304 46.02 56.1904 47.28 57.4904 48.18C58.7904 49.08 60.1304 49.53 61.5104 49.53C62.3304 49.53 63.0604 49.35 63.7004 48.99C64.3404 48.63 64.8304 48.16 65.1704 47.58C65.5104 46.98 65.6804 46.35 65.6804 45.69ZM104.866 30.39L97.6662 50.04L94.5462 51.57L89.7762 37.44L85.3062 50.04L82.1862 51.57L74.4762 30.33L71.6262 28.62L72.2262 27.42H80.4462V28.35L78.2562 30L84.4962 47.58L88.9662 35.1L87.3462 30.3L84.5862 28.62L85.1862 27.42H94.0062V28.35L91.3362 30.42L96.9162 47.52L103.096 30.42L97.7562 28.62L98.3562 27.42H107.476V28.35L104.866 30.39ZM118.406 51H109.286V50.07L112.106 47.85V29.67L108.986 28.62L109.586 27.42H118.706V28.35L115.856 30.57V48.72L119.006 49.8L118.406 51ZM133.633 39.51C134.993 39.51 136.063 39.14 136.843 38.4C137.643 37.66 138.043 36.64 138.043 35.34C138.043 33.5 137.573 32 136.633 30.84C135.713 29.66 134.363 29.07 132.583 29.07C131.223 29.07 129.983 29.46 128.863 30.24V48.54L133.513 49.83L132.913 51.03H122.293V50.1L125.113 47.88V29.64L121.993 28.62L122.593 27.42H126.073C128.013 27.42 129.923 27.36 131.803 27.24C133.203 27.16 134.233 27.12 134.893 27.12C136.293 27.12 137.533 27.42 138.613 28.02C139.713 28.6 140.563 29.41 141.163 30.45C141.763 31.49 142.063 32.64 142.063 33.9C142.063 35.3 141.553 36.62 140.533 37.86C139.513 39.1 138.213 40.07 136.633 40.77C135.053 41.47 133.503 41.78 131.983 41.7L130.573 40.68L131.173 39.48H133.603L133.633 39.51ZM163.672 51H145.672V50.07L148.492 47.85V29.67L145.372 28.62L145.972 27.42H163.372L164.992 26.88V33.78L164.092 34.08L160.522 28.77H152.242V38.28H156.952L159.142 34.44H160.072V43.56L158.872 44.16L156.982 39.63H152.242V49.65H160.402L164.392 43.74L165.292 44.04V51.54L163.672 51Z" fill="white"/>
</svg>