<svg width="149" height="32" viewBox="0 0 149 32" fill="none" xmlns="http://www.w3.org/2000/svg">
<rect width="149" height="32" rx="16" fill="black"/>
<rect width="31.9976" height="32" rx="15.9988" fill="#180202"/>
<path fill-rule="evenodd" clip-rule="evenodd" d="M26.033 9.41189C27.56 10.9547 27.7918 13.6492 26.5507 15.4301L17.7936 27.9964C16.5525 29.7773 14.3086 29.9704 12.7816 28.4276V28.4276C11.2545 26.8847 11.0228 24.1903 12.2639 22.4093L21.0209 9.84304C22.262 8.0621 24.506 7.86907 26.033 9.41189V9.41189Z" fill="white"/>
<path fill-rule="evenodd" clip-rule="evenodd" d="M16.9872 28.9224C15.3049 30.6221 12.8327 30.4094 11.4654 28.4474L2.47574 15.5473C1.10844 13.5852 1.36379 10.6168 3.04609 8.91704V8.91704C4.72839 7.21731 7.20058 7.42998 8.56788 9.39204L17.5576 22.2921C18.9249 24.2542 18.6695 27.2227 16.9872 28.9224V28.9224Z" fill="white"/>
<path fill-rule="evenodd" clip-rule="evenodd" d="M3.0721 25.0083C1.37542 23.3001 1.11856 20.316 2.49837 18.3431L12.2255 4.4347C13.6053 2.46175 16.0993 2.24708 17.7959 3.9552V3.9552C19.4926 5.66333 19.7495 8.64742 18.3697 10.6204L8.64257 24.5288C7.26276 26.5017 4.76877 26.7164 3.0721 25.0083V25.0083Z" fill="#5D0E5F" fill-opacity="0.71"/>
<path fill-rule="evenodd" clip-rule="evenodd" d="M13.123 3.40736C14.9922 1.52553 17.7398 1.76203 19.2599 3.93562L29.2452 18.2131C30.7653 20.3867 30.4823 23.6743 28.6131 25.5561V25.5561C26.7439 27.438 23.9963 27.2015 22.4761 25.0279L12.4909 10.7504C10.9707 8.57677 11.2537 5.2892 13.123 3.40736V3.40736Z" fill="#5D0E5F" fill-opacity="0.71"/>
<path d="M38.3575 23.7402C37.9241 23.2069 37.7075 22.7319 37.7075 22.3152C37.7075 21.8819 38.0658 21.3152 38.7825 20.6152C39.1991 20.2152 39.6408 20.0152 40.1075 20.0152C40.5741 20.0152 41.2241 20.4319 42.0575 21.2652C42.2908 21.5485 42.6241 21.8235 43.0575 22.0902C43.4908 22.3402 43.8908 22.4652 44.2575 22.4652C45.8075 22.4652 46.5825 21.8319 46.5825 20.5652C46.5825 20.1819 46.3658 19.8652 45.9325 19.6152C45.5158 19.3485 44.9908 19.1569 44.3575 19.0402C43.7241 18.9235 43.0408 18.7402 42.3075 18.4902C41.5741 18.2235 40.8908 17.9152 40.2575 17.5652C39.6241 17.2152 39.0908 16.6652 38.6575 15.9152C38.2408 15.1485 38.0325 14.2319 38.0325 13.1652C38.0325 11.6985 38.5741 10.4235 39.6575 9.34019C40.7575 8.24018 42.2491 7.69018 44.1325 7.69018C45.1325 7.69018 46.0408 7.82352 46.8575 8.09018C47.6908 8.34018 48.2658 8.59852 48.5825 8.86519L49.2075 9.34019C49.7241 9.82352 49.9825 10.2319 49.9825 10.5652C49.9825 10.8985 49.7825 11.3569 49.3825 11.9402C48.8158 12.7735 48.2325 13.1902 47.6325 13.1902C47.2825 13.1902 46.8491 13.0235 46.3325 12.6902C46.2825 12.6569 46.1825 12.5735 46.0325 12.4402C45.8991 12.3069 45.7741 12.1985 45.6575 12.1152C45.3075 11.8985 44.8575 11.7902 44.3075 11.7902C43.7741 11.7902 43.3241 11.9235 42.9575 12.1902C42.6075 12.4402 42.4325 12.7985 42.4325 13.2652C42.4325 13.7152 42.6408 14.0819 43.0575 14.3652C43.4908 14.6485 44.0241 14.8402 44.6575 14.9402C45.2908 15.0402 45.9825 15.1985 46.7325 15.4152C47.4825 15.6152 48.1741 15.8652 48.8075 16.1652C49.4408 16.4652 49.9658 16.9902 50.3825 17.7402C50.8158 18.4735 51.0325 19.3819 51.0325 20.4652C51.0325 21.5485 50.8158 22.5069 50.3825 23.3402C49.9491 24.1569 49.3825 24.7902 48.6825 25.2402C47.3325 26.1235 45.8908 26.5652 44.3575 26.5652C43.5741 26.5652 42.8325 26.4735 42.1325 26.2902C41.4325 26.0902 40.8658 25.8485 40.4325 25.5652C39.5491 25.0319 38.9325 24.5152 38.5825 24.0152L38.3575 23.7402ZM73.8258 8.09018C74.9425 8.49018 75.5008 9.02352 75.5008 9.69019C75.5008 9.90685 75.4008 10.3152 75.2008 10.9152L70.4008 24.7902C70.3675 24.9069 70.3092 25.0485 70.2258 25.2152C70.1425 25.3819 69.9175 25.6069 69.5508 25.8902C69.2008 26.1569 68.7758 26.2902 68.2758 26.2902C67.7925 26.2902 67.3675 26.1569 67.0008 25.8902C66.6508 25.6069 66.4175 25.3319 66.3008 25.0652L63.3758 16.4402C61.5258 21.9069 60.5842 24.6902 60.5508 24.7902C60.5175 24.8902 60.4425 25.0319 60.3258 25.2152C60.2092 25.3985 60.0758 25.5652 59.9258 25.7152C59.5425 26.0985 59.0842 26.2902 58.5508 26.2902C58.0175 26.2902 57.5758 26.1652 57.2258 25.9152C56.8925 25.6652 56.6675 25.4152 56.5508 25.1652L56.3758 24.7902L51.5508 10.9152C51.3675 10.3652 51.2758 9.95685 51.2758 9.69019C51.2758 9.02352 51.8342 8.49852 52.9508 8.11518C53.4342 7.94852 53.8675 7.86518 54.2508 7.86518C54.6508 7.86518 54.9508 7.99852 55.1508 8.26518C55.3675 8.53185 55.5592 8.94018 55.7258 9.49018L58.4758 17.8402L61.2008 9.61518C61.4342 8.91518 61.8592 8.43185 62.4758 8.16519C62.7425 8.04852 63.0842 7.99018 63.5008 7.99018C63.9342 7.99018 64.3342 8.13185 64.7008 8.41519C65.0675 8.68185 65.3008 8.94852 65.4008 9.21519L68.2758 17.8902L71.0258 9.49018C71.1592 9.10685 71.2675 8.82352 71.3508 8.64019C71.4342 8.45685 71.5842 8.28185 71.8008 8.11518C72.0342 7.93185 72.3175 7.84018 72.6508 7.84018C72.9842 7.84018 73.3758 7.92352 73.8258 8.09018ZM76.8764 10.1902C76.8764 9.80685 76.8848 9.52352 76.9014 9.34019C76.9348 9.14018 77.0181 8.91518 77.1514 8.66518C77.3848 8.21518 78.0348 7.99018 79.1014 7.99018C80.2681 7.99018 80.9598 8.29852 81.1764 8.91518C81.2598 9.19852 81.3014 9.63185 81.3014 10.2152V24.1152C81.3014 24.5152 81.2848 24.8069 81.2514 24.9902C81.2348 25.1735 81.1598 25.3902 81.0264 25.6402C80.7931 26.0902 80.1431 26.3152 79.0764 26.3152C77.9098 26.3152 77.2264 25.9985 77.0264 25.3652C76.9264 25.0985 76.8764 24.6735 76.8764 24.0902V10.1902ZM96.8223 11.6902C97.2557 12.5735 97.4723 13.5569 97.4723 14.6402C97.4723 15.7235 97.2557 16.7069 96.8223 17.5902C96.389 18.4569 95.8307 19.1485 95.1473 19.6652C93.764 20.7319 92.3307 21.2652 90.8473 21.2652H87.7223V24.0902C87.7223 24.4735 87.7057 24.7652 87.6723 24.9652C87.6557 25.1485 87.5807 25.3652 87.4473 25.6152C87.214 26.0652 86.564 26.2902 85.4973 26.2902C84.3307 26.2902 83.6473 25.9819 83.4473 25.3652C83.3473 25.0819 83.2973 24.6485 83.2973 24.0652V10.1902C83.2973 9.80685 83.3057 9.52352 83.3223 9.34019C83.3557 9.14018 83.439 8.91518 83.5723 8.66518C83.8057 8.21518 84.4557 7.99018 85.5223 7.99018H90.8723C92.339 7.99018 93.764 8.52352 95.1473 9.59018C95.8307 10.1069 96.389 10.8069 96.8223 11.6902ZM90.8723 16.8402C91.3723 16.8402 91.864 16.6569 92.3473 16.2902C92.8307 15.9235 93.0723 15.3735 93.0723 14.6402C93.0723 13.9069 92.8307 13.3569 92.3473 12.9902C91.864 12.6069 91.364 12.4152 90.8473 12.4152H87.7223V16.8402H90.8723ZM103.518 21.8902H111.218C111.602 21.8902 111.885 21.9069 112.068 21.9402C112.268 21.9569 112.493 22.0319 112.743 22.1652C113.193 22.3985 113.418 23.0485 113.418 24.1152C113.418 25.2819 113.11 25.9652 112.493 26.1652C112.21 26.2652 111.777 26.3152 111.193 26.3152H101.293C100.127 26.3152 99.4432 25.9985 99.2432 25.3652C99.1432 25.0985 99.0932 24.6735 99.0932 24.0902V10.1902C99.0932 9.34018 99.2515 8.76518 99.5682 8.46518C99.8849 8.14852 100.485 7.99018 101.368 7.99018H111.218C111.602 7.99018 111.885 8.00685 112.068 8.04019C112.268 8.05685 112.493 8.13185 112.743 8.26518C113.193 8.49852 113.418 9.14852 113.418 10.2152C113.418 11.3819 113.11 12.0652 112.493 12.2652C112.21 12.3652 111.777 12.4152 111.193 12.4152H103.518V14.9402H108.468C108.852 14.9402 109.135 14.9569 109.318 14.9902C109.518 15.0069 109.743 15.0819 109.993 15.2152C110.443 15.4485 110.668 16.0985 110.668 17.1652C110.668 18.3319 110.352 19.0152 109.718 19.2152C109.435 19.3152 109.002 19.3652 108.418 19.3652H103.518V21.8902Z" fill="white"/>
</svg>